<svg xmlns="http://www.w3.org/2000/svg" viewBox="0 0 120 120" width="120" height="120">
  <defs>
    <radialGradient id="dBody" cx="40%" cy="40%" r="70%">
      <stop offset="0%" stop-color="#e8e3da"/>
      <stop offset="100%" stop-color="#b8b0a3"/>
    </radialGradient>
    <radialGradient id="dBleed" cx="50%" cy="55%" r="60%">
      <stop offset="0%" stop-color="#c9c4bd" stop-opacity="0.45"/>
      <stop offset="100%" stop-color="#c9c4bd" stop-opacity="0"/>
    </radialGradient>
  </defs>
  <ellipse cx="60" cy="108" rx="40" ry="6" fill="#000" opacity="0.13"/>
  <ellipse cx="60" cy="78" rx="46" ry="26" fill="url(#dBleed)"/>
  <path d="M 22 82 C 22 64, 38 56, 60 56 C 82 56, 98 64, 98 82 C 98 92, 84 98, 60 98 C 36 98, 22 92, 22 82 Z" fill="url(#dBody)" stroke="#7a766f" stroke-width="2"/>
  <path d="M 32 70 Q 60 56 88 70" fill="none" stroke="#7a766f" stroke-width="1.8" stroke-linecap="round"/>
  <path d="M 48 74 L 52 78 M 52 74 L 48 78" stroke="#5a564f" stroke-width="2" stroke-linecap="round"/>
  <path d="M 68 74 L 72 78 M 72 74 L 68 78" stroke="#5a564f" stroke-width="2" stroke-linecap="round"/>
  <text x="78" y="46" font-family="serif" font-size="22" fill="#7a766f">z</text>
  <text x="92" y="36" font-family="serif" font-size="14" fill="#7a766f" opacity="0.65">z</text>
  <text x="100" y="28" font-family="serif" font-size="10" fill="#7a766f" opacity="0.45">z</text>
  <path d="M 58 56 Q 60 50 64 52 Q 62 54 60 56" fill="#86b894" stroke="#3d6a4a" stroke-width="1.2" opacity="0.6"/>
</svg>
