<svg xmlns="http://www.w3.org/2000/svg" viewBox="0 0 120 120" width="120" height="120">
  <defs>
    <radialGradient id="eBody" cx="40%" cy="30%" r="80%">
      <stop offset="0%" stop-color="#fff0d0"/>
      <stop offset="50%" stop-color="#f0a662"/>
      <stop offset="100%" stop-color="#c25e28"/>
    </radialGradient>
    <radialGradient id="eBleed" cx="50%" cy="55%" r="60%">
      <stop offset="0%" stop-color="#f0a662" stop-opacity="0.5"/>
      <stop offset="100%" stop-color="#f0a662" stop-opacity="0"/>
    </radialGradient>
    <radialGradient id="eCheek" cx="50%" cy="50%" r="50%">
      <stop offset="0%" stop-color="#ff9bb0" stop-opacity="0.8"/>
      <stop offset="100%" stop-color="#ff9bb0" stop-opacity="0"/>
    </radialGradient>
  </defs>
  <ellipse cx="60" cy="112" rx="32" ry="4" fill="#000" opacity="0.13"/>
  <ellipse cx="60" cy="64" rx="44" ry="46" fill="url(#eBleed)"/>
  <g>
    <ellipse cx="84" cy="62" rx="13" ry="20" fill="#7eb0a8" stroke="#2d5a55" stroke-width="1.8"/>
    <path d="M 75 50 Q 78 36 86 36 Q 95 36 96 50" fill="none" stroke="#2d5a55" stroke-width="1.8" stroke-linecap="round"/>
    <rect x="78" y="58" width="12" height="4" rx="2" fill="#2d5a55" opacity="0.7"/>
    <rect x="78" y="68" width="12" height="3" rx="1.5" fill="#2d5a55" opacity="0.5"/>
    <circle cx="84" cy="76" r="2" fill="#d8a020"/>
    <path d="M 90 42 Q 96 42 96 48" fill="none" stroke="#d8a020" stroke-width="1.5"/>
  </g>
  <path d="M 30 50 C 30 32, 44 22, 60 22 C 76 22, 90 32, 90 50 C 90 76, 82 96, 60 96 C 38 96, 30 76, 30 50 Z" fill="url(#eBody)" stroke="#9b5520" stroke-width="2.2" stroke-linejoin="round"/>
  <path d="M 26 50 Q 36 56 50 56 Q 60 60 70 56 Q 84 56 94 50" fill="none" stroke="#c2364e" stroke-width="3" stroke-linecap="round"/>
  <path d="M 26 50 Q 30 54 32 58" fill="none" stroke="#c2364e" stroke-width="2"/>
  <rect x="42" y="92" width="14" height="10" rx="3" fill="#5a3818" stroke="#3a2410" stroke-width="1.5"/>
  <rect x="64" y="92" width="14" height="10" rx="3" fill="#5a3818" stroke="#3a2410" stroke-width="1.5"/>
  <circle cx="36" cy="60" r="6" fill="url(#eCheek)"/>
  <circle cx="84" cy="60" r="6" fill="url(#eCheek)"/>
  <ellipse cx="50" cy="52" rx="4.5" ry="5.5" fill="#2a1810"/>
  <ellipse cx="70" cy="52" rx="4.5" ry="5.5" fill="#2a1810"/>
  <circle cx="52" cy="49" r="1.7" fill="#fff"/>
  <circle cx="72" cy="49" r="1.7" fill="#fff"/>
  <path d="M 52 68 Q 60 74 68 68" fill="none" stroke="#7a3e18" stroke-width="2.4" stroke-linecap="round"/>
  <g>
    <path d="M 50 22 Q 56 6 64 12 Q 70 20 60 30 Q 56 26 52 24 Z" fill="#86b894" stroke="#3d6a4a" stroke-width="1.5" stroke-linejoin="round"/>
    <ellipse cx="60" cy="14" rx="3" ry="4" fill="#9bd0a8" opacity="0.7"/>
  </g>
</svg>
