<svg xmlns="http://www.w3.org/2000/svg" viewBox="0 0 120 120" width="120" height="120">
  <defs>
    <radialGradient id="wBody" cx="40%" cy="30%" r="80%">
      <stop offset="0%" stop-color="#ffeec8"/>
      <stop offset="50%" stop-color="#e89952"/>
      <stop offset="100%" stop-color="#a64a15"/>
    </radialGradient>
    <radialGradient id="wBleed" cx="50%" cy="55%" r="60%">
      <stop offset="0%" stop-color="#e89952" stop-opacity="0.5"/>
      <stop offset="100%" stop-color="#e89952" stop-opacity="0"/>
    </radialGradient>
    <radialGradient id="wCheek" cx="50%" cy="50%" r="50%">
      <stop offset="0%" stop-color="#ff9bb0" stop-opacity="0.75"/>
      <stop offset="100%" stop-color="#ff9bb0" stop-opacity="0"/>
    </radialGradient>
  </defs>
  <ellipse cx="60" cy="114" rx="32" ry="4" fill="#000" opacity="0.13"/>
  <ellipse cx="60" cy="64" rx="46" ry="50" fill="url(#wBleed)"/>
  <g>
    <ellipse cx="84" cy="58" rx="14" ry="22" fill="#6a9890" stroke="#234540" stroke-width="1.8"/>
    <path d="M 74 46 Q 78 30 86 30 Q 96 30 98 46" fill="none" stroke="#234540" stroke-width="1.8" stroke-linecap="round"/>
    <rect x="78" y="54" width="12" height="4" rx="2" fill="#234540" opacity="0.7"/>
    <rect x="76" y="64" width="14" height="3" rx="1.5" fill="#234540" opacity="0.5"/>
    <rect x="74" y="74" width="18" height="6" rx="2" fill="#a86038" stroke="#5a3018" stroke-width="1.2"/>
    <circle cx="84" cy="84" r="1.8" fill="#d8a020"/>
  </g>
  <path d="M 30 52 C 30 32, 44 22, 60 22 C 76 22, 90 32, 90 52 C 90 80, 82 98, 60 98 C 38 98, 30 80, 30 52 Z" fill="url(#wBody)" stroke="#7a3e18" stroke-width="2.2" stroke-linejoin="round"/>
  <g>
    <ellipse cx="60" cy="30" rx="36" ry="6" fill="#d8a060" stroke="#7a3e18" stroke-width="1.5"/>
    <ellipse cx="60" cy="26" rx="18" ry="12" fill="#e8b878" stroke="#7a3e18" stroke-width="1.5"/>
    <path d="M 42 30 Q 60 26 78 30" fill="none" stroke="#c2364e" stroke-width="2.5" stroke-linecap="round"/>
  </g>
  <path d="M 28 52 Q 36 64 50 60 L 70 60 Q 84 64 92 52" fill="none" stroke="#c2364e" stroke-width="3" stroke-linecap="round"/>
  <path d="M 60 60 L 62 76 L 58 76 Z" fill="#c2364e"/>
  <rect x="42" y="94" width="14" height="10" rx="3" fill="#3a2410" stroke="#1f120a" stroke-width="1.5"/>
  <rect x="64" y="94" width="14" height="10" rx="3" fill="#3a2410" stroke="#1f120a" stroke-width="1.5"/>
  <circle cx="38" cy="62" r="6" fill="url(#wCheek)"/>
  <circle cx="82" cy="62" r="6" fill="url(#wCheek)"/>
  <ellipse cx="50" cy="54" rx="4.2" ry="5.2" fill="#2a1810"/>
  <ellipse cx="70" cy="54" rx="4.2" ry="5.2" fill="#2a1810"/>
  <circle cx="52" cy="51" r="1.5" fill="#fff"/>
  <circle cx="72" cy="51" r="1.5" fill="#fff"/>
  <path d="M 50 72 Q 60 78 70 72" fill="none" stroke="#5a2810" stroke-width="2.4" stroke-linecap="round"/>
</svg>
